<svg xmlns="http://www.w3.org/2000/svg" xmlns:xlink="http://www.w3.org/1999/xlink" viewBox="0 0 321.2 137.08"><defs><style>.cls-1{mask:url(#mask);filter:url(#luminosity-noclip-2);}.cls-2{mix-blend-mode:multiply;fill:url(#linear-gradient);}.cls-3{fill:#fff;}.cls-4{fill:#a6a6a6;}.cls-5{mask:url(#mask-2);}.cls-6{fill:url(#linear-gradient-2);}.cls-7{filter:url(#luminosity-noclip);}</style><filter id="luminosity-noclip" x="149.96" y="-8271.08" width="171.24" height="32766" filterUnits="userSpaceOnUse" color-interpolation-filters="sRGB"><feFlood flood-color="#fff" result="bg"/><feBlend in="SourceGraphic" in2="bg"/></filter><mask id="mask" x="149.96" y="-8271.08" width="171.24" height="32766" maskUnits="userSpaceOnUse"><g class="cls-7"/></mask><linearGradient id="linear-gradient" x1="235.58" y1="875.4" x2="235.58" y2="789.59" gradientTransform="translate(0 -759)" gradientUnits="userSpaceOnUse"><stop offset="0" stop-color="#1a1a1a"/><stop offset="0.12" stop-color="#262626"/><stop offset="0.31" stop-color="#3a3a3a"/><stop offset="0.53" stop-color="#515151"/><stop offset="0.78" stop-color="#6b6b6b"/><stop offset="1" stop-color="#828282"/></linearGradient><filter id="luminosity-noclip-2" x="149.96" y="20.94" width="171.24" height="95.2" filterUnits="userSpaceOnUse" color-interpolation-filters="sRGB"><feFlood flood-color="#fff" result="bg"/><feBlend in="SourceGraphic" in2="bg"/></filter><mask id="mask-2" x="149.96" y="20.94" width="171.24" height="95.2" maskUnits="userSpaceOnUse"><g class="cls-1"><path class="cls-2" d="M309.94,20.94H150l62.66,95.2h97.32a11.27,11.27,0,0,0,11.26-11.25V32.19A11.28,11.28,0,0,0,309.94,20.94Z"/></g></mask><linearGradient id="linear-gradient-2" x1="235.58" y1="875.4" x2="235.58" y2="789.59" gradientTransform="translate(0 -759)" gradientUnits="userSpaceOnUse"><stop offset="0" stop-color="#1a1a1a"/><stop offset="0.12" stop-color="#212121"/><stop offset="0.31" stop-color="#353535"/><stop offset="0.53" stop-color="#575757"/><stop offset="0.78" stop-color="#858585"/><stop offset="1" stop-color="#b3b3b3"/></linearGradient></defs><title>sm</title><g id="objects"><path class="cls-3" d="M319.07,104.9a9.12,9.12,0,0,1-9.13,9.12H11.26a9.13,9.13,0,0,1-9.14-9.12V32.19a9.14,9.14,0,0,1,9.14-9.13H309.94a9.13,9.13,0,0,1,9.13,9.13V104.9Z"/><path class="cls-4" d="M309.94,116.14H11.26A11.26,11.26,0,0,1,0,104.9V32.19A11.27,11.27,0,0,1,11.26,20.94H309.94A11.28,11.28,0,0,1,321.2,32.19V104.9a11.27,11.27,0,0,1-11.26,11.24Z"/><path d="M319.07,104.9a9.12,9.12,0,0,1-9.13,9.12H11.26a9.13,9.13,0,0,1-9.14-9.12V32.19a9.14,9.14,0,0,1,9.14-9.13H309.94a9.13,9.13,0,0,1,9.13,9.13V104.9Z"/><path class="cls-3" d="M71.72,68c-.07-7.67,6.28-11.41,6.57-11.58a14.15,14.15,0,0,0-11.13-6c-4.68-.49-9.22,2.8-11.61,2.8s-6.1-2.75-10.06-2.67A14.84,14.84,0,0,0,33,58.18c-5.39,9.34-1.37,23.06,3.8,30.61,2.59,3.7,5.61,7.83,9.56,7.68S51.68,94,56.35,94s6,2.46,10,2.37,6.76-3.72,9.26-7.45a30.1,30.1,0,0,0,4.23-8.62A13.36,13.36,0,0,1,71.72,68Z"/><path class="cls-3" d="M64.1,45.48a13.59,13.59,0,0,0,3.11-9.74,13.88,13.88,0,0,0-8.94,4.63c-1.92,2.24-3.64,5.92-3.19,9.37C58.46,50,61.93,48,64.1,45.48Z"/><g class="cls-5"><path class="cls-6" d="M309.94,20.94H150l62.66,95.2h97.32a11.27,11.27,0,0,0,11.26-11.25V32.19A11.28,11.28,0,0,0,309.94,20.94Z"/></g><path class="cls-3" d="M127.75,95.94h-5.4l-3-9.31H109.09l-2.82,9.31H101l10.2-31.68h6.3Zm-9.26-13.21-2.68-8.27q-.42-1.27-1.59-6h-.1c-.31,1.35-.82,3.34-1.5,6L110,82.73Z"/><path class="cls-3" d="M153.93,84.24q0,5.82-3.16,9.21a9.31,9.31,0,0,1-7,3q-4.54,0-6.53-3.24v12h-5.07V80.6c0-2.44-.07-4.94-.19-7.5h4.46l.29,3.62h.09a9,9,0,0,1,14.45-.9A12.61,12.61,0,0,1,153.93,84.24Zm-5.17.18a9.46,9.46,0,0,0-1.5-5.5,5.2,5.2,0,0,0-4.42-2.25,5.33,5.33,0,0,0-3.41,1.24,5.73,5.73,0,0,0-2,3.27,6.52,6.52,0,0,0-.24,1.55v3.81a6.11,6.11,0,0,0,1.53,4.21,5.07,5.07,0,0,0,4,1.71,5.19,5.19,0,0,0,4.46-2.21A9.68,9.68,0,0,0,148.76,84.42Z"/><path class="cls-3" d="M180.21,84.24q0,5.82-3.17,9.21a9.31,9.31,0,0,1-7,3c-3,0-5.2-1.08-6.53-3.24v12H158.4V80.6q0-3.66-.19-7.5h4.46l.29,3.62h.09a9,9,0,0,1,14.46-.9A12.66,12.66,0,0,1,180.21,84.24Zm-5.18.18a9.46,9.46,0,0,0-1.5-5.5,5.2,5.2,0,0,0-4.42-2.25,5.33,5.33,0,0,0-3.41,1.24,5.73,5.73,0,0,0-2,3.27,6.52,6.52,0,0,0-.24,1.55v3.81A6.11,6.11,0,0,0,165,90.75a5.06,5.06,0,0,0,4,1.71,5.21,5.21,0,0,0,4.47-2.21A9.75,9.75,0,0,0,175,84.42Z"/><path class="cls-3" d="M209.58,87.05a8.49,8.49,0,0,1-2.81,6.59c-2.06,1.84-4.94,2.77-8.63,2.77a15.07,15.07,0,0,1-8.21-2l1.18-4.23a14.09,14.09,0,0,0,7.33,2,6.91,6.91,0,0,0,4.46-1.29,4.22,4.22,0,0,0,1.61-3.45,4.45,4.45,0,0,0-1.32-3.25,12.33,12.33,0,0,0-4.37-2.44q-8.32-3.1-8.33-9.08a8,8,0,0,1,2.94-6.39,11.63,11.63,0,0,1,7.78-2.49,15.38,15.38,0,0,1,7.19,1.5l-1.27,4.14A12.6,12.6,0,0,0,201,68a6.23,6.23,0,0,0-4.2,1.31,3.78,3.78,0,0,0-1.27,2.87,3.87,3.87,0,0,0,1.46,3.1,16.49,16.49,0,0,0,4.6,2.45,15.6,15.6,0,0,1,6,3.85A8,8,0,0,1,209.58,87.05Z"/><path class="cls-3" d="M226.41,76.9h-5.6V88c0,2.82,1,4.22,3,4.22A9,9,0,0,0,226,92l.14,3.85a11.38,11.38,0,0,1-3.95.56,6.09,6.09,0,0,1-4.7-1.83q-1.7-1.84-1.69-6.16V76.9H212.5V73.09h3.33V68.9l5-1.5v5.69h5.6Z"/><path class="cls-3" d="M251.6,84.33a12.57,12.57,0,0,1-3,8.65,10.74,10.74,0,0,1-8.37,3.48,10.23,10.23,0,0,1-8-3.34,12.14,12.14,0,0,1-3-8.41A12.41,12.41,0,0,1,232.3,76a10.67,10.67,0,0,1,8.3-3.39A10.45,10.45,0,0,1,248.68,76,12,12,0,0,1,251.6,84.33Zm-5.26.12A10.27,10.27,0,0,0,245,79.06a5,5,0,0,0-4.56-2.72,5.08,5.08,0,0,0-4.66,2.72,10.36,10.36,0,0,0-1.36,5.48,10.15,10.15,0,0,0,1.36,5.39,5.21,5.21,0,0,0,9.17,0A10.23,10.23,0,0,0,246.34,84.45Z"/><path class="cls-3" d="M268.1,77.56a9.07,9.07,0,0,0-1.6-.14,4.78,4.78,0,0,0-4.13,2A7.58,7.58,0,0,0,261.1,84v12H256V80.29q0-3.95-.14-7.19h4.42l.18,4.37h.14a7.81,7.81,0,0,1,2.54-3.62,6.12,6.12,0,0,1,3.67-1.23,8.08,8.08,0,0,1,1.27.1v4.84Z"/><path class="cls-3" d="M290.8,83.44a12.47,12.47,0,0,1-.18,2.3H275.39a6.6,6.6,0,0,0,2.21,5.17,7.5,7.5,0,0,0,5,1.6,16.88,16.88,0,0,0,6.16-1.08l.79,3.52a19.06,19.06,0,0,1-7.65,1.41q-5.33,0-8.35-3.12a11.53,11.53,0,0,1-3-8.39,13.11,13.11,0,0,1,2.82-8.6,9.74,9.74,0,0,1,8-3.66,8.53,8.53,0,0,1,7.48,3.66A12.36,12.36,0,0,1,290.8,83.44ZM286,82.12a6.89,6.89,0,0,0-1-3.9,4.43,4.43,0,0,0-4.05-2.12,4.82,4.82,0,0,0-4,2.07,7.66,7.66,0,0,0-1.5,4Z"/><path class="cls-3" d="M116,52.92h-2.65l-1.46-4.57h-5.06l-1.39,4.57H102.9l5-15.57H111Zm-4.55-6.49-1.31-4.07c-.14-.41-.4-1.38-.79-2.93h0c-.16.67-.39,1.64-.74,2.93l-1.29,4.07Z"/><path class="cls-3" d="M128.58,41.69l-4.25,11.23H121.9l-4.11-11.23h2.68l1.92,5.94c.32,1,.6,1.94.81,2.84h.06c.19-.81.47-1.75.81-2.84l1.9-5.94Z"/><path class="cls-3" d="M137.63,52.92l-.18-1.29h-.07a3.83,3.83,0,0,1-3.28,1.55,3.28,3.28,0,0,1-3.45-3.31c0-2.77,2.41-4.2,6.56-4.2v-.21c0-1.48-.78-2.22-2.33-2.22a5.26,5.26,0,0,0-2.93.83l-.51-1.64a7.27,7.27,0,0,1,3.86-1c2.93,0,4.41,1.55,4.41,4.65v4.13a15.84,15.84,0,0,0,.17,2.68Zm-.35-5.59c-2.77,0-4.15.67-4.15,2.26a1.59,1.59,0,0,0,1.7,1.76,2.38,2.38,0,0,0,2.45-2.29Z"/><path class="cls-3" d="M145.27,39.84a1.49,1.49,0,1,1,1.57-1.5A1.46,1.46,0,0,1,145.27,39.84Zm1.3,13.08h-2.5V41.69h2.5Z"/><path class="cls-3" d="M153.49,52.92H151V36.54h2.49Z"/><path class="cls-3" d="M164.1,52.92l-.19-1.29h-.07a3.83,3.83,0,0,1-3.28,1.55,3.27,3.27,0,0,1-3.44-3.31c0-2.77,2.4-4.2,6.56-4.2v-.21c0-1.48-.79-2.22-2.33-2.22a5.32,5.32,0,0,0-2.94.83l-.51-1.64a7.18,7.18,0,0,1,3.86-1c2.94,0,4.42,1.55,4.42,4.64v4.14a17.26,17.26,0,0,0,.16,2.68Zm-.35-5.59c-2.77,0-4.16.67-4.16,2.26a1.6,1.6,0,0,0,1.71,1.76,2.39,2.39,0,0,0,2.45-2.29Z"/><path class="cls-3" d="M176.28,53.18a3.83,3.83,0,0,1-3.53-2h-.05l-.14,1.73h-2.12c.06-.9.09-1.92.09-3V36.54H173v6.8h0a3.85,3.85,0,0,1,3.58-1.87c2.71,0,4.6,2.31,4.6,5.68S179.15,53.18,176.28,53.18Zm-.5-9.76a2.87,2.87,0,0,0-2.75,3v2a2.75,2.75,0,0,0,2.7,2.82c1.87,0,3-1.53,3-3.95S177.56,43.42,175.78,43.42Z"/><path class="cls-3" d="M187.44,52.92h-2.5V36.54h2.5Z"/><path class="cls-3" d="M201,47.91h-7.49a3.22,3.22,0,0,0,3.53,3.32,8.34,8.34,0,0,0,3-.53l.39,1.73a9.26,9.26,0,0,1-3.77.7c-3.51,0-5.59-2.22-5.59-5.66s2.13-6,5.31-6c2.86,0,4.67,2.12,4.67,5.34A4.79,4.79,0,0,1,201,47.91Zm-2.29-1.78c0-1.73-.88-3-2.47-3a3,3,0,0,0-2.73,3Z"/><path class="cls-3" d="M216.14,53.18c-3.28,0-5.41-2.45-5.41-5.78s2.17-5.94,5.6-5.94c3.23,0,5.4,2.34,5.4,5.76S219.49,53.18,216.14,53.18Zm.09-9.89c-1.8,0-2.95,1.68-2.95,4s1.17,4,2.93,4,2.93-1.81,2.93-4S218,43.29,216.23,43.29Z"/><path class="cls-3" d="M235.14,52.92h-2.49V46.47c0-2-.76-3-2.26-3a2.59,2.59,0,0,0-2.5,2.75v6.68H225.4v-8c0-1,0-2-.1-3.21h2.2l.12,1.73h.07a4,4,0,0,1,3.55-2c2.36,0,3.9,1.8,3.9,4.74v6.72Z"/><path class="cls-3" d="M251.47,43.56h-2.75V49c0,1.38.49,2.08,1.45,2.08a4.82,4.82,0,0,0,1.11-.12l.07,1.9a5.66,5.66,0,0,1-1.93.27c-2,0-3.14-1.08-3.14-3.92V43.56h-1.64V41.69h1.64v-2l2.44-.74v2.79h2.75Z"/><path class="cls-3" d="M264.68,52.92h-2.5v-6.4c0-2-.76-3-2.26-3a2.44,2.44,0,0,0-2.49,2.65v6.77h-2.5V36.54h2.5v6.75h0a3.78,3.78,0,0,1,3.38-1.83c2.37,0,3.83,1.85,3.83,4.78Z"/><path class="cls-3" d="M277.43,47.91h-7.49a3.22,3.22,0,0,0,3.53,3.32,8.34,8.34,0,0,0,3-.53l.39,1.73a9.23,9.23,0,0,1-3.77.7c-3.51,0-5.59-2.22-5.59-5.66s2.13-6,5.31-6c2.87,0,4.67,2.12,4.67,5.34A4.79,4.79,0,0,1,277.43,47.91Zm-2.29-1.78c0-1.73-.88-3-2.47-3a3,3,0,0,0-2.73,3Z"/></g></svg>