<svg xmlns="http://www.w3.org/2000/svg" xmlns:xlink="http://www.w3.org/1999/xlink" viewBox="0 0 321.2 137.08"><defs><style>.cls-1{fill:#a6a6a6;}.cls-2,.cls-3{fill:#fff;}.cls-2{stroke:#fff;stroke-miterlimit:10;stroke-width:0.16px;}.cls-4{fill:url(#linear-gradient);}.cls-5{fill:url(#linear-gradient-2);}.cls-6{fill:url(#linear-gradient-3);}.cls-7{fill:url(#linear-gradient-4);}</style><linearGradient id="linear-gradient" x1="59.82" y1="-90.26" x2="19.99" y2="-50.42" gradientTransform="matrix(1, 0, 0, -0.99, -8.1, 5.68)" gradientUnits="userSpaceOnUse"><stop offset="0" stop-color="#00a0ff"/><stop offset="0.01" stop-color="#00a1ff"/><stop offset="0.26" stop-color="#00beff"/><stop offset="0.51" stop-color="#00d2ff"/><stop offset="0.76" stop-color="#00dfff"/><stop offset="1" stop-color="#00e3ff"/></linearGradient><linearGradient id="linear-gradient-2" x1="88.39" y1="-63.45" x2="30.96" y2="-63.45" gradientTransform="matrix(1, 0, 0, -0.99, -8.1, 5.68)" gradientUnits="userSpaceOnUse"><stop offset="0" stop-color="#ffe000"/><stop offset="0.41" stop-color="#ffbd00"/><stop offset="0.78" stop-color="orange"/><stop offset="1" stop-color="#ff9c00"/></linearGradient><linearGradient id="linear-gradient-3" x1="47.2" y1="-77.81" x2="-6.82" y2="-23.79" gradientTransform="matrix(1, 0, 0, -0.99, -8.1, 5.68)" gradientUnits="userSpaceOnUse"><stop offset="0" stop-color="#ff3a44"/><stop offset="1" stop-color="#c31162"/></linearGradient><linearGradient id="linear-gradient-4" x1="5.6" y1="-90.7" x2="29.72" y2="-66.58" gradientTransform="matrix(1, 0, 0, -0.99, -8.1, 5.68)" gradientUnits="userSpaceOnUse"><stop offset="0" stop-color="#32a071"/><stop offset="0.07" stop-color="#2da771"/><stop offset="0.48" stop-color="#15cf74"/><stop offset="0.8" stop-color="#06e775"/><stop offset="1" stop-color="#00f076"/></linearGradient></defs><title>sm</title><g id="objects"><g id="g10"><g id="g12"><path id="path14" d="M309.3,115.57H11.9A11.87,11.87,0,0,1,0,103.81V33.27A11.87,11.87,0,0,1,11.9,21.51H309.3a11.87,11.87,0,0,1,11.9,11.76v70.54A11.87,11.87,0,0,1,309.3,115.57Z"/><path id="path16" class="cls-1" d="M309.3,23.39a9.94,9.94,0,0,1,10,9.88v70.54a9.94,9.94,0,0,1-10,9.88H11.9a9.94,9.94,0,0,1-10-9.88V33.27a9.94,9.94,0,0,1,10-9.88H309.3m0-1.88H11.9A11.87,11.87,0,0,0,0,33.27v70.54a11.87,11.87,0,0,0,11.9,11.76H309.3a11.87,11.87,0,0,0,11.9-11.76V33.27A11.87,11.87,0,0,0,309.3,21.51Z"/><g id="g18"><path id="path20" class="cls-2" d="M112.82,45.6a6.41,6.41,0,0,1-1.77,4.71,7,7,0,0,1-5.25,2.09,7.23,7.23,0,0,1-5.25-2.12,7.46,7.46,0,0,1,0-10.5,7.2,7.2,0,0,1,5.25-2.13,7.53,7.53,0,0,1,2.93.6A5.82,5.82,0,0,1,111,39.82l-1.24,1.24a4.9,4.9,0,0,0-3.92-1.66A5.49,5.49,0,0,0,101.9,41a5.87,5.87,0,0,0,0,8.14,5.53,5.53,0,0,0,3.9,1.56,5.45,5.45,0,0,0,4-1.57,4.36,4.36,0,0,0,1.2-2.86H105.8v-1.7h6.91A5,5,0,0,1,112.82,45.6Z"/></g><g id="g22"><path id="path24" class="cls-2" d="M123.78,39.71h-6.49v4.47h5.85v1.69h-5.85v4.47h6.49v1.73h-8.33V38h8.33Z"/></g><g id="g26"><path id="path28" class="cls-2" d="M131.52,52.07h-1.84V39.71h-4V38h9.81v1.73h-4Z"/></g><g id="g30"><path id="path32" class="cls-2" d="M142.6,52.07V38h1.84V52.07Z"/></g><g id="g34"><path id="path36" class="cls-2" d="M152.57,52.07h-1.82V39.71h-4V38h9.82v1.73h-4Z"/></g><g id="g38"><path id="path40" class="cls-2" d="M175.13,50.26a7.47,7.47,0,0,1-10.47,0,7.58,7.58,0,0,1,0-10.47,7.45,7.45,0,0,1,10.46,0,7.52,7.52,0,0,1,0,10.46ZM166,49.08a5.31,5.31,0,0,0,3.89,1.58,5.24,5.24,0,0,0,3.86-1.58,5.94,5.94,0,0,0,0-8.11,5.24,5.24,0,0,0-3.86-1.58A5.31,5.31,0,0,0,166,41a6,6,0,0,0,0,8.11Z"/></g><g id="g42"><path id="path44" class="cls-2" d="M179.81,52.07V38h2.24l6.93,11h.08L189,46.23V38h1.84V52.07H188.9l-7.26-11.5h-.08l.08,2.72v8.78Z"/></g><path id="path46" class="cls-3" d="M162.11,72.66a10,10,0,1,0,10.17,10A9.92,9.92,0,0,0,162.11,72.66Zm0,16.07a6.08,6.08,0,1,1,5.72-6.07A5.81,5.81,0,0,1,162.11,88.73ZM140,72.66a10,10,0,1,0,10.15,10A9.92,9.92,0,0,0,140,72.66Zm0,16.07a6.08,6.08,0,1,1,5.7-6.07A5.83,5.83,0,0,1,140,88.73Zm-26.37-13V80h10.27a8.81,8.81,0,0,1-2.33,5.34,10.61,10.61,0,0,1-7.94,3.1,11.29,11.29,0,0,1,0-22.58,11,11,0,0,1,7.74,3l3-3a15.07,15.07,0,0,0-10.77-4.29c-8.66,0-16,7-16,15.54s7.29,15.53,16,15.53a14.42,14.42,0,0,0,11-4.36,15.14,15.14,0,0,0,3.49-12.57ZM221.39,79c-.83-2.23-3.41-6.36-8.66-6.36s-9.54,4.06-9.54,10a9.84,9.84,0,0,0,10,10,10.06,10.06,0,0,0,8.43-4.43L218.21,86a5.81,5.81,0,0,1-5,2.77,5.16,5.16,0,0,1-4.91-3l13.54-5.54Zm-13.8,3.33a5.52,5.52,0,0,1,5.29-5.83,3.94,3.94,0,0,1,3.76,2.12Zm-11,9.71H201V62.66h-4.45ZM189.3,74.89h-.14a7.06,7.06,0,0,0-5.32-2.23,10,10,0,0,0,0,20,6.94,6.94,0,0,0,5.32-2.27h.14v1.44c0,3.82-2.06,5.88-5.4,5.88a5.62,5.62,0,0,1-5.1-3.58l-3.87,1.6a9.66,9.66,0,0,0,9,5.91c5.22,0,9.62-3,9.62-10.41v-18H189.3Zm-5.08,13.84a6.08,6.08,0,0,1,0-12.13c3,0,5.4,2.57,5.4,6.1S187.24,88.73,184.22,88.73Zm58-26.07H231.58v29.4H236V80.92h6.2c4.93,0,9.76-3.53,9.76-9.13S247.14,62.66,242.22,62.66Zm.12,14.17H236V66.75h6.32a5,5,0,1,1,0,10.08Zm27.43-4.22c-3.21,0-6.54,1.39-7.91,4.5l3.93,1.63a4.22,4.22,0,0,1,4.06-2.16c2.3,0,4.63,1.36,4.67,3.78v.31a9.81,9.81,0,0,0-4.64-1.14c-4.24,0-8.56,2.31-8.56,6.61,0,3.94,3.48,6.48,7.38,6.48a6.3,6.3,0,0,0,5.67-2.88h.15V92h4.29V80.73C278.81,75.52,274.87,72.61,269.77,72.61Zm-.54,16.1c-1.45,0-3.47-.71-3.47-2.49,0-2.27,2.52-3.14,4.7-3.14a8.06,8.06,0,0,1,4.06,1A5.36,5.36,0,0,1,269.23,88.71Zm25.19-15.46L289.32,86h-.15l-5.28-12.74h-4.78L287,91.06,282.51,101h4.64l12.21-27.72Zm-40,18.81h4.45V62.66h-4.45Z"/><g id="g48"><path id="path64" class="cls-4" d="M24.83,39.24a4.63,4.63,0,0,0-1.11,3.3v52a4.66,4.66,0,0,0,1.11,3.31L25,98,54.48,68.88V68.2L25,39.07Z"/></g><g id="g66"><path id="path78" class="cls-5" d="M64.3,78.6l-9.82-9.72V68.2l9.83-9.72.22.13,11.64,6.54c3.33,1.86,3.33,4.92,0,6.79L64.53,78.47Z"/></g><g id="g80"><path id="path88" class="cls-6" d="M64.53,78.47,54.48,68.54,24.83,97.86c1.1,1.14,2.9,1.28,5,.13L64.53,78.47"/></g><g id="g90"><path id="path104" class="cls-7" d="M64.53,58.61,29.78,39.09c-2.05-1.14-3.85-1-5,.15l29.65,29.3Z"/></g></g></g></g></svg>